<svg width="40" height="40" viewBox="0 0 40 40" fill="none" xmlns="http://www.w3.org/2000/svg">
<path d="M30.4168 3.33325C32.1385 3.33325 33.6106 3.94451 34.8331 5.16702C36.0556 6.38953 36.6668 7.86161 36.6668 9.58325V30.4166C36.6668 32.1382 36.0556 33.6103 34.8331 34.8328C33.6106 36.0553 32.1385 36.6666 30.4168 36.6666H26.337V23.7543H30.6555L31.3066 18.7195H26.337V15.5077C26.337 14.6975 26.507 14.0899 26.847 13.6848C27.1869 13.2797 27.8488 13.0772 28.8326 13.0772L31.4802 13.0555V8.56329C30.5687 8.43308 29.2811 8.36797 27.6174 8.36797C25.6498 8.36797 24.0764 8.94668 22.8973 10.1041C21.7182 11.2615 21.1286 12.8963 21.1286 15.0086V18.7195H16.7884V23.7543H21.1286V36.6666H9.5835C7.86185 36.6666 6.38978 36.0553 5.16726 34.8328C3.94475 33.6103 3.3335 32.1382 3.3335 30.4166V9.58325C3.3335 7.86161 3.94475 6.38953 5.16726 5.16702C6.38978 3.94451 7.86185 3.33325 9.5835 3.33325H30.4168Z" fill="#3F8CB8"/>
</svg>
