<svg width="240" height="64" viewBox="0 0 240 64" fill="none" xmlns="http://www.w3.org/2000/svg">
<path d="M232.935 48.8537C232.935 49.093 231.778 49.9704 229.784 49.9704H229.146V26.799H232.935V48.8537ZM237.442 16.8685C237.003 17.2673 236.165 17.2673 235.049 16.8685C231.699 17.5863 226.354 18.384 221.728 18.703L221.609 18.1846C225.557 16.8685 230.622 14.5952 233.174 13.0398L237.442 16.8685ZM225.078 17.4268C224.959 17.706 224.6 17.8256 224.081 17.9054V27.3574C224.081 34.8552 223.164 44.2673 213.672 50.2894L213.193 49.8108C219.415 43.3101 220.412 35.1742 220.412 27.2776V15.8714L225.078 17.4268ZM234.131 23.7281C234.131 23.7281 236.524 25.6823 238 27.0383C237.88 27.477 237.482 27.6764 236.923 27.6764H222.127V26.5199H232.018L234.131 23.7281ZM218.817 16.4696C218.378 16.8685 217.62 16.8685 216.544 16.5095C213.592 17.347 208.806 18.4238 204.778 18.9822L204.579 18.384C208.049 17.028 212.555 14.6351 214.789 13.0797L218.817 16.4696ZM207.969 17.9453C207.849 18.2244 207.53 18.384 207.012 18.4238V29.1122C207.012 35.7724 206.773 44.4667 200.87 50.3692L200.312 49.9704C203.303 43.7887 203.422 36.0117 203.422 28.9925V16.4696L207.969 17.9453ZM213.074 23.4888L214.908 21.5346L218.737 24.4859C218.498 24.8049 217.9 25.124 217.062 25.2835V36.4504C217.022 36.7296 215.227 37.4475 214.071 37.4475H213.473V23.4888H213.074ZM215.666 33.898V35.0546H204.659V33.898H215.666ZM215.666 23.4888V24.6454H204.659V23.4888H215.666Z" fill="#3F8CB8"/>
<path d="M172.714 43.2703C169.882 45.5037 165.096 47.9764 159.991 49.2127L159.712 48.6942C163.74 46.7001 168.167 42.5923 169.922 39.9601L174.708 42.6721C174.468 43.1108 173.91 43.39 172.714 43.2703ZM181.767 40.7578C196.802 42.2334 196.603 50.0502 192.335 48.8937C190.022 46.3412 185.037 42.9513 181.488 41.1965L181.767 40.7578ZM181.129 35.2939C181.049 35.8124 180.69 36.2112 179.653 36.3708V49.3324C179.653 49.6913 177.938 50.3294 176.343 50.3294H175.665V34.7755L181.129 35.2939ZM191.578 35.2142C191.578 35.2142 194.21 37.1684 195.805 38.5643C195.725 39.003 195.287 39.2024 194.728 39.2024H160.39L160.031 38.0458H189.264L191.578 35.2142ZM175.386 13.0399C184.479 14.5554 180.969 21.1758 177.579 18.5835C177.34 16.7489 176.143 14.5554 175.027 13.2792L175.386 13.0399ZM173.072 15.2334C172.873 15.6721 172.355 15.9513 171.477 15.8316C168.486 20.7371 164.578 24.7253 160.55 27.2777L160.071 26.8789C162.903 23.6484 166.093 18.3442 168.087 13L173.072 15.2334ZM169.084 35.4136C169.084 35.6529 167.888 36.5702 166.013 36.5702H165.335V20.1388L166.931 17.8257L169.603 18.9025H169.084V35.4136ZM180.889 18.9823V33.4993H177.021V18.9823H180.889ZM188.267 25.6027C188.267 25.6027 190.541 27.3575 191.976 28.6337C191.857 29.0724 191.458 29.2718 190.9 29.2718H167.688V28.1551H186.233L188.267 25.6027ZM188.347 20.9365C188.347 20.9365 190.62 22.6913 192.056 24.0074C191.937 24.4461 191.538 24.6455 190.979 24.6455H167.688V23.4889H186.353L188.347 20.9365ZM189.903 30.1492C189.903 30.1492 192.415 32.0635 193.931 33.4594C193.851 33.8981 193.412 34.0975 192.854 34.0975H167.688V32.9409H187.709L189.903 30.1492ZM189.304 16.1108C189.304 16.1108 191.737 18.0251 193.173 19.421C193.093 19.8597 192.694 20.0591 192.136 20.0591H167.768V18.9025H187.151L189.304 16.1108Z" fill="#3F8CB8"/>
<path d="M136.66 15.5923C137.538 30.6676 141.207 40.3988 154.886 45.9822L154.846 46.4209C152.852 46.7799 151.536 47.9763 151.018 50.0901C138.774 43.5096 136.501 31.6248 135.942 15.672L136.66 15.5923ZM136.66 15.5923C136.341 27.6765 136.341 41.1565 118.115 50.2097L117.637 49.6115C132.752 39.2821 132.513 26.4002 132.553 13.9172L138.096 14.4756C138.016 15.0738 137.697 15.4726 136.66 15.5923Z" fill="#3F8CB8"/>
<path d="M99.2511 26.48C99.0916 26.8389 98.613 27.0383 97.7755 27.1579V29.7104C97.616 29.7104 96.8981 29.7104 94.1861 29.7104V24.9644L99.2511 26.48ZM93.0295 45.7828C94.7843 45.4637 98.9321 44.5065 102.96 43.4297L103.12 43.9083C101.524 45.0649 98.1743 47.4578 94.5849 49.6513L93.0295 45.7828ZM96.8981 27.477L97.7755 28.0353V45.9423L94.1462 47.2983L95.6617 45.9423C96.3796 48.415 95.1433 49.8906 94.2659 50.2894L92.2319 45.9822C93.9069 45.1447 94.1861 44.7857 94.1861 43.9881V27.477H96.8981ZM80.9055 13.2791C89.9985 15.7517 86.6484 22.412 83.418 19.7798C83.2585 17.6262 81.8626 15.1136 80.5066 13.5582L80.9055 13.2791ZM84.0561 20.8566C83.9365 31.7444 82.9793 42.4327 76.4786 50.2894L76 49.9305C80.0679 41.4356 80.5864 31.0265 80.1876 20.8566H84.0561ZM88.9616 28.1151V29.2717H81.7829V28.1151H88.9616ZM87.0074 28.1151L88.9217 26.121L92.5111 29.1122C92.192 29.4711 91.7134 29.7104 90.8759 29.7901C90.5569 42.0339 89.839 46.7798 88.0044 48.5346C86.9276 49.6513 85.4121 50.09 83.7371 50.09C83.7371 48.9733 83.6573 48.0959 83.1787 47.6173C82.74 47.059 81.7829 46.7 80.6263 46.4209V45.8226C81.7031 45.9423 83.4579 46.0221 84.1758 46.0221C84.8139 46.0221 85.0931 45.9024 85.452 45.5834C86.5687 44.5464 87.127 39.3219 87.4062 28.1151H87.0074ZM89.6795 17.9851C89.6795 17.9851 92.0724 19.9792 93.5081 21.3751C93.3885 21.8138 92.9897 22.0132 92.4313 22.0132H76.4786L76.1595 20.8566H87.5258L89.6795 17.9851ZM102.083 14.8345C101.923 15.2732 101.445 15.6321 100.567 15.5922C98.4136 20.7769 95.2629 24.8049 91.5938 27.3972L91.0753 26.9984C93.4682 23.7281 95.7016 18.5435 96.8183 13.1594L102.083 14.8345ZM109.381 17.3869C109.381 17.3869 111.894 19.4209 113.369 20.8167C113.25 21.2554 112.851 21.4548 112.292 21.4548H96.0606V20.2983H107.227L109.381 17.3869ZM112.851 31.5051C112.651 31.8241 112.013 32.0634 111.256 31.7444C109.581 33.1402 106.27 35.4932 103.399 37.0486L103.04 36.6897C105.074 34.2968 107.706 30.4283 108.783 28.474L112.851 31.5051ZM111.375 25.443C111.136 25.7621 110.657 25.7621 110.059 25.5228C106.908 26.5996 100.886 27.5568 96.4594 27.7961L96.1403 27.1978C99.8892 26.121 104.874 24.087 107.387 22.412L111.375 25.443ZM101.484 26.3603C103.04 35.2938 107.148 42.8714 113.609 45.9024L113.569 46.3012C112.133 46.7 110.936 47.9763 110.378 49.9704C104.316 45.4238 101.963 37.926 100.846 26.5597L101.484 26.3603Z" fill="#3F8CB8"/>
<path d="M30.9855 59.9771C26.8585 59.9771 22.7315 60.0317 18.6077 59.9643C13.5679 59.8841 9.42475 56.9409 7.65742 52.2774C7.20102 51.0706 7.01652 49.7964 7.01652 48.5029C7.01652 40.3603 7.06508 32.2208 7.00034 24.0781C6.95179 17.3958 12.134 12.4049 18.4718 12.2412C19.4007 12.2187 20.3362 12.1321 21.2587 12.2059C22.4596 12.3022 22.8448 11.8015 22.7477 10.6749C22.6764 9.84045 22.7056 8.98991 22.7477 8.14901C22.8448 6.12377 23.9323 5.04214 25.9619 5.02288C29.3185 4.99079 32.6751 4.994 36.035 5.02288C38.0062 5.03893 39.1521 6.21042 39.2038 8.18431C39.2297 9.14718 39.2427 10.1101 39.2038 11.0729C39.1682 11.9138 39.547 12.1866 40.3626 12.1995C42.418 12.2252 44.4702 12.1032 46.503 12.6777C51.3162 14.0354 54.8638 18.2592 54.9188 23.2244C55.0127 31.8068 55.0418 40.3891 54.9156 48.9715C54.8314 54.8515 49.8143 59.7557 43.8487 59.9354C39.5664 60.0638 35.2743 59.9611 30.9855 59.9611C30.9855 59.9675 30.9855 59.9739 30.9855 59.9804V59.9771ZM31.0437 57.1591C34.805 57.1591 38.5662 57.1688 42.3274 57.1527C43.3341 57.1463 44.3505 57.1656 45.3312 56.8575C49.7819 55.4645 51.9215 52.608 51.9441 47.9477C51.9668 43.4158 51.9571 38.8839 51.9441 34.3519C51.9376 30.5839 51.9571 26.8127 51.8761 23.0446C51.8244 20.6374 50.7368 18.6636 48.8918 17.1037C48.5907 16.8502 48.2832 16.4297 47.8657 16.603C47.4158 16.7892 47.61 17.3091 47.6067 17.6814C47.5905 21.2505 47.6197 24.8195 47.5873 28.3886C47.5614 31.2611 46.0498 33.1259 43.3794 33.8224C42.677 34.0053 41.6671 33.4821 41.3143 34.3231C41.0391 34.9778 41.2236 35.8219 41.2075 36.5826C41.201 36.9035 41.2075 37.2245 41.2075 37.5455C41.2075 40.0329 41.2139 42.5171 41.1978 45.0045C41.1913 45.7106 41.0359 46.3589 40.217 46.6157C39.6117 46.8051 39.0744 46.6895 38.6503 46.2627C38.1939 45.7973 38.2101 45.1682 38.2101 44.5616C38.2101 41.3937 38.1842 38.2259 38.2263 35.058C38.2393 34.1594 37.9415 33.8898 37.0416 33.8994C33.1186 33.9411 29.1955 33.9154 25.2724 33.9186C24.2301 33.9186 23.7068 34.4472 23.7025 35.5042C23.7025 38.6335 23.7122 41.7596 23.6928 44.889C23.6831 46.1054 23.1587 46.7345 22.2168 46.6927C21.0774 46.6446 20.7311 45.8904 20.7117 44.8954C20.7052 44.5359 20.7052 44.1732 20.7052 43.8138C20.7052 40.8866 20.7052 37.9595 20.702 35.0324C20.702 34.4579 20.7408 33.9764 19.8701 33.9058C16.0474 33.5913 14.361 31.7265 14.348 27.8911C14.3351 24.521 14.3545 21.1542 14.3351 17.7841C14.3351 17.3765 14.5714 16.7924 14.0696 16.5998C13.6165 16.4233 13.2798 16.924 12.9562 17.1968C10.8813 18.9524 10.0074 21.2569 10.0041 23.9048C9.9912 31.9255 9.99443 39.9462 10.0041 47.9669C10.0041 49.132 10.1077 50.2939 10.5123 51.4012C11.8427 55.0344 14.9242 57.095 19.2745 57.1527C23.1976 57.2041 27.1207 57.1624 31.0437 57.1656V57.1591ZM23.7349 22.9708C23.7349 25.3363 23.7478 27.6985 23.7284 30.064C23.7219 30.7348 23.887 31.0942 24.6704 31.0878C28.8718 31.0621 33.0765 31.0621 37.2779 31.0878C38.0321 31.091 38.249 30.8022 38.2457 30.0961C38.2263 25.3684 38.2263 20.6407 38.2457 15.913C38.2457 15.1812 37.9706 14.9308 37.2488 14.934C33.0862 14.9533 28.9236 14.9565 24.761 14.934C23.955 14.9276 23.7122 15.2486 23.722 16.006C23.7511 18.3298 23.7317 20.6535 23.7349 22.9772V22.9708ZM41.2334 23.1152C41.2334 25.24 41.2139 27.3615 41.2463 29.4862C41.256 30.0062 40.9453 30.738 41.5959 30.9979C42.2335 31.2515 42.9327 31.0621 43.5542 30.6674C44.3246 30.1795 44.5803 29.4606 44.5835 28.6196C44.5932 24.4536 44.5738 20.2844 44.6029 16.1184C44.6094 15.3513 44.3278 15.0111 43.5704 15.0046C43.2078 15.0014 42.8421 14.9758 42.4828 14.9308C41.5441 14.8153 41.1945 15.1844 41.2172 16.144C41.2722 18.4678 41.2334 20.7915 41.2334 23.1152ZM20.7473 23.0222C20.7473 20.9038 20.7473 18.7823 20.7473 16.664C20.7473 14.841 20.6955 14.796 18.8246 14.9533C18.5851 14.9726 18.3455 15.0303 18.106 15.0496C17.5525 15.0913 17.3583 15.3898 17.3583 15.9194C17.3712 20.1977 17.3389 24.4793 17.3874 28.7577C17.4004 30.1121 18.2678 30.9017 19.5464 31.0653C20.4268 31.1777 20.7861 30.9145 20.7635 29.9805C20.7117 27.6632 20.7473 25.3427 20.7505 23.0222H20.7473ZM30.9757 7.82484C30.2895 7.82484 29.6033 7.82484 28.9139 7.82484C25.5314 7.82484 25.554 7.82484 25.7353 11.1949C25.7774 11.9941 26.101 12.2187 26.852 12.2059C28.9106 12.1738 30.9725 12.1963 33.0344 12.1963C36.3845 12.1963 36.3619 12.1963 36.213 8.79413C36.1806 8.07198 35.9443 7.79916 35.216 7.81842C33.8015 7.85373 32.387 7.82805 30.9757 7.82484Z" fill="#3F8CB8"/>
</svg>
