<svg width="40" height="40" viewBox="0 0 40 40" fill="none" xmlns="http://www.w3.org/2000/svg">
<path d="M22.9668 15.7666C22.8837 15.7666 22.8013 15.783 22.7245 15.8148C22.6476 15.8466 22.5778 15.8933 22.519 15.9521C22.4602 16.0109 22.4135 16.0807 22.3817 16.1576C22.3499 16.2344 22.3335 16.3167 22.3335 16.3999V19.1833L20.0002 16.0833C19.942 15.9889 19.8613 15.9106 19.7653 15.8553C19.6692 15.8 19.5609 15.7695 19.4502 15.7666C19.367 15.7666 19.2846 15.783 19.2078 15.8148C19.131 15.8466 19.0611 15.8933 19.0023 15.9521C18.9435 16.0109 18.8969 16.0807 18.865 16.1576C18.8332 16.2344 18.8168 16.3167 18.8168 16.3999V21.1333C18.8168 21.2164 18.8332 21.2988 18.865 21.3756C18.8969 21.4525 18.9435 21.5223 19.0023 21.5811C19.0611 21.6399 19.131 21.6865 19.2078 21.7184C19.2846 21.7502 19.367 21.7666 19.4502 21.7666C19.5333 21.7666 19.6157 21.7502 19.6925 21.7184C19.7694 21.6865 19.8392 21.6399 19.898 21.5811C19.9568 21.5223 20.0035 21.4525 20.0353 21.3756C20.0671 21.2988 20.0835 21.2164 20.0835 21.1333V18.3333L22.4002 21.5166C22.4592 21.6054 22.5477 21.6703 22.6502 21.6999C22.7269 21.7183 22.8068 21.7183 22.8835 21.6999C22.9566 21.7265 23.0345 21.7373 23.1121 21.7315C23.1896 21.7258 23.2651 21.7036 23.3335 21.6666L23.5002 21.5499C23.6157 21.4283 23.6812 21.2676 23.6835 21.0999V16.3999C23.6843 16.3092 23.6656 16.2195 23.6287 16.1366C23.5918 16.0538 23.5375 15.9799 23.4696 15.9198C23.4016 15.8598 23.3216 15.815 23.2349 15.7886C23.1481 15.7622 23.0567 15.7547 22.9668 15.7666ZM15.3335 20.4499H13.5668V16.3999C13.5668 16.2319 13.5001 16.0709 13.3813 15.9521C13.2626 15.8333 13.1015 15.7666 12.9335 15.7666C12.7655 15.7666 12.6044 15.8333 12.4857 15.9521C12.3669 16.0709 12.3002 16.2319 12.3002 16.3999V21.1333C12.3002 21.3012 12.3669 21.4623 12.4857 21.5811C12.6044 21.6999 12.7655 21.7666 12.9335 21.7666H15.3335C15.503 21.7666 15.6659 21.7005 15.7873 21.5821C15.9088 21.4638 15.9791 21.3027 15.9835 21.1333C15.988 21.0451 15.9746 20.957 15.9439 20.8743C15.9133 20.7915 15.8661 20.7159 15.8053 20.6519C15.7445 20.588 15.6713 20.5371 15.5902 20.5024C15.5091 20.4677 15.4217 20.4498 15.3335 20.4499ZM17.1835 15.7666C17.014 15.7665 16.8511 15.8327 16.7297 15.951C16.6082 16.0694 16.5378 16.2304 16.5335 16.3999V21.1333C16.5378 21.3027 16.6082 21.4638 16.7297 21.5821C16.8511 21.7005 17.014 21.7666 17.1835 21.7666C17.3515 21.7666 17.5126 21.6999 17.6313 21.5811C17.7501 21.4623 17.8168 21.3012 17.8168 21.1333V16.3999C17.8168 16.2319 17.7501 16.0709 17.6313 15.9521C17.5126 15.8333 17.3515 15.7666 17.1835 15.7666ZM29.8502 3.33325H10.1502C8.34362 3.33765 6.61233 4.05725 5.33491 5.33467C4.05749 6.61209 3.3379 8.34338 3.3335 10.1499V29.8499C3.3379 31.6565 4.05749 33.3878 5.33491 34.6652C6.61233 35.9426 8.34362 36.6622 10.1502 36.6666H29.8502C31.6567 36.6622 33.388 35.9426 34.6654 34.6652C35.9428 33.3878 36.6624 31.6565 36.6668 29.8499V10.1499C36.6624 8.34338 35.9428 6.61209 34.6654 5.33467C33.388 4.05725 31.6567 3.33765 29.8502 3.33325ZM30.3668 23.7999C30.2997 23.8982 30.2274 23.9927 30.1502 24.0833C29.7527 24.5723 29.3059 25.0192 28.8168 25.4166C25.4835 28.5333 19.8835 32.2666 19.1335 31.6833C18.3835 31.0999 20.2002 28.7499 18.2502 28.3499C18.1118 28.3673 17.9718 28.3673 17.8335 28.3499C12.1002 27.5499 7.8335 23.5333 7.8335 18.7166C7.8335 13.2999 13.3168 8.91659 20.0668 8.91659C26.8168 8.91659 32.3002 13.2999 32.3002 18.7166C32.2423 20.5796 31.5616 22.3694 30.3668 23.7999ZM27.5168 15.7833H25.0002C24.917 15.7833 24.8346 15.7996 24.7578 15.8315C24.681 15.8633 24.6111 15.9099 24.5523 15.9688C24.4935 16.0276 24.4469 16.0974 24.415 16.1742C24.3832 16.2511 24.3668 16.3334 24.3668 16.4166V21.1499C24.3668 21.3179 24.4336 21.479 24.5523 21.5978C24.6711 21.7165 24.8322 21.7833 25.0002 21.7833H27.4668C27.6348 21.7833 27.7959 21.7165 27.9147 21.5978C28.0334 21.479 28.1002 21.3179 28.1002 21.1499C28.1002 21.0667 28.0838 20.9844 28.052 20.9076C28.0201 20.8307 27.9735 20.7609 27.9147 20.7021C27.8559 20.6433 27.786 20.5966 27.7092 20.5648C27.6324 20.533 27.55 20.5166 27.4668 20.5166H25.7502V19.5166H27.5168C27.6863 19.5122 27.8474 19.4418 27.9657 19.3204C28.084 19.199 28.1502 19.0361 28.1502 18.8666C28.1502 18.6986 28.0834 18.5375 27.9647 18.4188C27.8459 18.3 27.6848 18.2333 27.5168 18.2333H25.7502V17.2166H27.5168C27.6 17.2166 27.6824 17.2002 27.7592 17.1684C27.836 17.1365 27.9059 17.0899 27.9647 17.0311C28.0235 16.9723 28.0701 16.9025 28.102 16.8256C28.1338 16.7488 28.1502 16.6664 28.1502 16.5833C28.1764 16.4875 28.1797 16.3868 28.1598 16.2895C28.1399 16.1922 28.0975 16.1009 28.0358 16.0231C27.9742 15.9452 27.8951 15.8829 27.8049 15.8413C27.7148 15.7996 27.6161 15.7797 27.5168 15.7833Z" fill="#3F8CB8"/>
</svg>
